Coordinates
version=1
nRows=14
nColumns=63
inDegrees=yes

Units are S.I. units (second, meters, Newtons, ...)
If the header above contains a line with 'inDegrees', this indicates whether rotational values are in degrees (yes) or radians (no).

endheader
time	pelvis_tilt	pelvis_list	pelvis_rotation	pelvis_tx	pelvis_ty	pelvis_tz	hip_flexion_r	hip_adduction_r	hip_rotation_r	knee_angle_r	knee_angle_r_beta	ankle_angle_r	subtalar_angle_r	mtp_angle_r	hip_flexion_l	hip_adduction_l	hip_rotation_l	knee_angle_l	knee_angle_l_beta	ankle_angle_l	subtalar_angle_l	mtp_angle_l	L5_S1_Flex_Ext	L5_S1_Lat_Bending	L5_S1_axial_rotation	L4_L5_Flex_Ext	L4_L5_Lat_Bending	L4_L5_axial_rotation	L3_L4_Flex_Ext	L3_L4_Lat_Bending	L3_L4_axial_rotation	L2_L3_Flex_Ext	L2_L3_Lat_Bending	L2_L3_axial_rotation	L1_L2_Flex_Ext	L1_L2_Lat_Bending	L1_L2_axial_rotation	L1_T12_Flex_Ext	L1_T12_Lat_Bending	L1_T12_axial_rotation	Abs_r3	Abs_r2	Abs_r1	Abs_t1	Abs_t2	neck_flexion	neck_bending	neck_rotation	arm_flex_r	arm_add_r	arm_rot_r	elbow_flex_r	pro_sup_r	wrist_flex_r	wrist_dev_r	arm_flex_l	arm_add_l	arm_rot_l	elbow_flex_l	pro_sup_l	wrist_flex_l	wrist_dev_l
0.976190	8.573412	-5.669189	99.412418	0.265334	0.789554	0.545919	10.091648	3.823063	-16.121862	14.941804	0.260784	25.636304	-3.725896	0.000000	8.443458	-7.261232	11.553659	8.859278	0.154624	34.173013	6.595816	0.000000	0.165682	0.990406	0.341010	0.307687	1.317240	0.362323	0.272198	2.408073	0.362323	0.189358	2.408073	0.298384	0.153852	2.019636	0.277071	0.094670	1.534139	0.255758	1.183447	11.203672	1.896596	0.000000	0.000000	26.051483	-7.746065	-0.279387	17.956062	-13.443418	23.860299	41.395285	73.536061	-4.295171	9.139301	40.560931	11.250588	163.226374	0.989973	1.537942	-11.843125	-21.929794
1.000000	8.013372	-4.892857	99.876178	0.264000	0.792462	0.548002	8.764924	3.292265	-16.858895	14.022067	0.244731	25.233128	-3.050083	0.000000	7.395690	-6.687588	12.970073	8.098745	0.141350	32.768881	5.226522	0.000000	0.106368	0.896493	0.666713	0.197535	1.192336	0.708383	0.174751	2.179734	0.708383	0.121567	2.179734	0.583374	0.098773	1.828129	0.541704	0.060778	1.388668	0.500035	0.759773	10.141313	3.708058	0.000000	0.000000	24.962035	-9.177164	-4.450716	17.834222	-15.116917	10.343181	47.895184	80.231068	-4.423793	11.411075	46.331299	10.549900	164.956052	0.646518	1.574166	-18.336489	-22.770501
1.023810	7.337354	-4.158500	100.304347	0.263169	0.795204	0.549628	7.346954	2.742588	-17.276571	12.966099	0.226301	24.794279	-2.652392	0.000000	6.184855	-6.045635	14.969717	7.041950	0.122905	31.109732	3.103316	0.000000	0.047411	0.784285	0.990632	0.088048	1.043100	1.052546	0.077892	1.906912	1.052546	0.054186	1.906912	0.866803	0.044026	1.599315	0.804888	0.027091	1.214858	0.742974	0.338654	8.871993	5.509597	0.000000	0.000000	23.850759	-10.318684	-8.444705	17.945591	-16.636979	-2.704796	54.891129	85.682014	-4.256363	13.362620	52.589313	9.582014	166.304650	0.358757	1.613463	-25.497947	-23.387461
1.047619	6.541659	-3.492522	100.701412	0.262839	0.797633	0.550839	5.932368	2.161817	-17.340392	11.906308	0.207804	24.359403	-2.604389	0.000000	4.885278	-5.316941	17.496042	5.786917	0.101001	29.285803	0.284605	0.000000	-0.011726	0.654618	1.303538	-0.021776	0.870642	1.385009	-0.019264	1.591638	1.385009	-0.013401	1.591638	1.140596	-0.010888	1.334897	1.059124	-0.006700	1.014003	0.977653	-0.083755	7.405169	7.249886	0.000000	0.000000	22.746352	-11.142774	-12.196020	18.328333	-18.005220	-14.886300	62.218447	89.656602	-4.014473	14.979995	59.200549	8.370614	167.188854	0.135763	1.649390	-33.009083	-23.751266
1.071429	5.640805	-2.975327	101.296595	0.262904	0.799600	0.551921	4.660761	1.518705	-17.297023	10.967490	0.191419	23.958928	-2.933662	0.000000	3.860134	-4.536786	19.125722	4.839340	0.084462	27.880677	-1.128819	0.000000	-0.068937	0.505558	1.552809	-0.128023	0.672392	1.649860	-0.113257	1.229214	1.649860	-0.078788	1.229214	1.358708	-0.064015	1.030934	1.261657	-0.039391	0.783109	1.164607	-0.492410	5.718974	8.636257	0.000000	0.000000	21.729696	-11.475668	-15.579579	19.165283	-19.169652	-25.406940	69.622245	91.652049	-3.668470	16.076577	66.108986	6.919764	167.379025	-0.013890	1.679500	-40.556399	-23.894596
1.095238	4.640325	-2.604385	102.014621	0.263359	0.801111	0.552592	3.522752	0.807231	-17.093664	10.171755	0.177531	23.599418	-3.638076	0.000000	2.971716	-3.687049	20.724210	4.001533	0.069840	26.563720	-2.364980	0.000000	-0.123260	0.338351	1.760793	-0.228906	0.450007	1.870842	-0.202504	0.822667	1.870842	-0.140874	0.822667	1.540694	-0.114459	0.689965	1.430644	-0.070431	0.524106	1.320595	-0.880433	3.827494	9.793001	0.000000	0.000000	20.777412	-11.442285	-18.730049	20.308185	-20.240856	-34.242854	76.936883	91.437138	-3.531286	16.517015	73.143100	5.283496	166.516424	-0.078569	1.678412	-47.798401	-23.874193
1.119048	3.547625	-2.405572	102.803810	0.264171	0.802167	0.552663	2.537542	0.020215	-16.702606	9.520837	0.166170	23.289145	-4.728005	0.000000	2.211888	-2.763058	22.185742	3.259417	0.056888	25.350725	-3.364781	0.000000	-0.170350	0.153408	1.947756	-0.316357	0.204032	2.069490	-0.279868	0.372995	2.069490	-0.194693	0.372995	1.704286	-0.158187	0.312829	1.582552	-0.097338	0.237628	1.460817	-1.216791	1.735377	10.832833	0.000000	0.000000	19.886877	-11.103719	-21.655767	21.558633	-21.208586	-41.230914	83.888356	88.949696	-3.646855	16.225411	80.110202	3.530972	164.589369	-0.112794	1.633710	-54.367680	-23.808115
1.142857	2.409806	-2.403917	103.669372	0.265163	0.802713	0.552025	1.734992	-0.856510	-16.330941	9.036016	0.157708	23.134774	-5.938567	0.000000	1.606087	-1.771303	23.664352	2.627140	0.045852	24.251044	-4.292065	0.000000	-0.204858	-0.043946	2.130015	-0.380442	-0.058448	2.263141	-0.336561	-0.106850	2.263141	-0.234132	-0.106850	1.863763	-0.190231	-0.089615	1.730637	-0.117056	-0.068072	1.597511	-1.463281	-0.497126	11.846504	0.000000	0.000000	19.094656	-10.590041	-24.443890	22.333585	-22.325002	-50.036731	91.009682	87.545185	-4.462013	16.116727	86.860883	1.724137	161.186276	-0.001655	1.574115	-60.005031	-23.676047
1.166667	1.219569	-2.592735	104.556555	0.266349	0.802786	0.550716	1.154789	-1.853603	-15.994345	8.769695	0.153060	23.193273	-7.176133	0.000000	1.143884	-0.695067	25.257040	2.082254	0.036342	23.220076	-5.356161	0.000000	-0.224463	-0.251669	2.322446	-0.416850	-0.334720	2.467599	-0.368770	-0.611908	2.467599	-0.256539	-0.611908	2.032140	-0.208436	-0.513204	1.886988	-0.128258	-0.389835	1.741835	-1.603317	-2.846931	12.916749	0.000000	0.000000	18.372505	-10.026066	-27.072566	22.703794	-23.369284	-59.356792	97.953444	87.105740	-5.630427	16.408255	93.168379	-0.139792	156.763509	0.071263	1.476420	-64.438611	-23.586998
1.190476	-0.006924	-2.960798	105.392507	0.267689	0.802434	0.548719	0.811788	-2.962543	-15.644953	8.715452	0.152113	23.462054	-8.409502	0.000000	0.829734	0.453351	26.642222	1.634176	0.028522	22.340354	-6.201109	0.000000	-0.227526	-0.464388	2.547652	-0.422538	-0.617635	2.706880	-0.373802	-1.129112	2.706880	-0.260039	-1.129112	2.229195	-0.211280	-0.946979	2.069967	-0.130008	-0.719336	1.910739	-1.625194	-5.253245	14.169275	0.000000	0.000000	17.694998	-9.539980	-29.523425	22.680807	-24.271948	-68.998745	104.631763	86.464861	-7.232725	16.635002	98.862177	-2.062453	151.543859	0.092304	1.343458	-67.640858	-23.600295
1.214286	-1.233596	-3.484058	106.107589	0.269098	0.801695	0.546014	0.705735	-4.145210	-15.243594	8.852570	0.154506	23.922195	-9.603243	0.000000	0.653355	1.644061	27.770928	1.274805	0.022250	21.623653	-6.868659	0.000000	-0.212652	-0.672880	2.823222	-0.394917	-0.894931	2.999673	-0.349367	-1.636041	2.999673	-0.243040	-1.636041	2.470319	-0.197469	-1.372137	2.293868	-0.121510	-1.042291	2.117416	-1.518955	-7.611756	15.701912	0.000000	0.000000	17.053373	-9.245765	-31.727670	22.314888	-24.997119	-78.729304	110.922277	84.813805	-9.307736	16.518186	103.812913	-4.014599	145.899802	0.094370	1.187079	-69.816323	-23.683858
1.238095	-2.438772	-4.146323	106.641760	0.270529	0.800591	0.542630	0.835895	-5.371400	-14.754250	9.159872	0.159870	24.565376	-10.716097	0.000000	0.612638	2.855518	28.441427	1.003668	0.017517	21.111615	-7.195468	0.000000	-0.179827	-0.871910	3.156190	-0.333957	-1.159640	3.353452	-0.295438	-2.119962	3.353452	-0.205525	-2.119962	2.761666	-0.166988	-1.777999	2.564404	-0.102753	-1.350589	2.367142	-1.284488	-9.863221	17.553782	0.000000	0.000000	16.477393	-9.204981	-33.631798	21.685105	-25.515719	-88.260977	116.624527	82.612254	-11.888396	16.240692	107.923606	-5.947836	140.459032	0.089608	1.029658	-71.377083	-23.784598
1.261905	-3.596537	-4.928011	106.941050	0.271950	0.799162	0.538721	1.214623	-6.600812	-14.115416	9.624508	0.167979	25.373350	-11.731728	0.000000	0.715152	4.057979	28.458881	0.819501	0.014303	20.830801	-7.029960	0.000000	-0.130403	-1.058081	3.554354	-0.242171	-1.407248	3.776501	-0.214239	-2.572619	3.776501	-0.149037	-2.572619	3.110059	-0.121092	-2.157639	2.887912	-0.074512	-1.638968	2.665765	-0.931453	-11.969227	19.768249	0.000000	0.000000	15.995220	-9.467704	-35.322765	20.823897	-25.859744	-97.390851	121.573800	80.664929	-14.764323	16.134334	111.135257	-7.783662	135.454912	0.083525	0.908423	-72.296758	-23.886359
1.285714	-4.690919	-5.762726	107.067667	0.273280	0.797603	0.534482	1.739365	-7.805089	-13.404536	10.167295	0.177453	26.292319	-12.600778	0.000000	0.906249	5.230557	27.916545	0.725578	0.012664	20.739062	-6.457374	0.000000	-0.073530	-1.229534	3.996615	-0.136552	-1.635280	4.246404	-0.120802	-2.989488	4.246404	-0.084037	-2.989488	3.497038	-0.068280	-2.507265	3.247250	-0.042015	-1.904548	2.997462	-0.525217	-13.908731	22.227976	0.000000	0.000000	15.548576	-10.014862	-36.849184	19.748485	-26.029957	-105.865107	125.705386	79.025721	-17.943798	16.077947	113.468960	-9.492127	130.950643	0.077401	0.826969	-72.471329	-23.998644
